<?xml version="1.0" encoding="UTF-8"?>
<svg width="37px" height="17px" viewBox="0 0 37 17" version="1.1" xmlns="http://www.w3.org/2000/svg" xmlns:xlink="http://www.w3.org/1999/xlink">
    <!-- Generator: Sketch 49 (51002) - http://www.bohemiancoding.com/sketch -->
    <title>icon_car_gray</title>
    <desc>Created with Sketch.</desc>
    <defs></defs>
    <g id="Page-1" stroke="none" stroke-width="1" fill="none" fill-rule="evenodd">
        <g id="icon_car_gray" transform="translate(18.384776, 8.384776) rotate(90.000000) translate(-18.384776, -8.384776) translate(10.384776, -9.615224)" fill-rule="nonzero">
            <path d="M15.1053276,12.657969 C15.2293491,9.21710664 15.2158301,9.29410581 15.2140668,9.31173919 C15.2205324,9.24061786 15.4691632,6.38988628 14.9971761,3.66611516 C14.5193112,0.90766501 11.4128955,0.147665882 11.4128955,0.147665882 L11.2536072,0.141200282 L7.98143759,0.016591001 L7.98143759,0.033636617 L4.7415959,0.156482588 L4.58230759,0.163535945 C4.58230759,0.163535945 1.47647964,0.922947316 0.998026958,3.68139742 C0.526039874,6.40634413 0.774082883,9.25648788 0.781136278,9.3264337 C0.77937293,9.30938808 0.766441769,9.23297671 0.889875497,12.6726635 C1.02036258,16.3004399 0.660641414,25.248798 0.710014913,26.3356027 C0.759388412,27.4212318 0.628901327,29.7241526 0.846379802,30.3325046 C1.06327052,30.9402688 1.80152182,33.8950374 1.80152182,33.8950374 C1.80152182,33.8950374 2.99706573,36.1809127 8.01376547,35.8394127 L8.01376547,35.8258937 C13.0022518,36.1562259 14.1936812,33.8791674 14.1936812,33.8791674 C14.1936812,33.8791674 14.9319325,30.9255744 15.1494111,30.3172224 C15.3663018,29.7088704 15.2358147,27.4065373 15.2851882,26.3203204 C15.3333861,25.2341035 14.9748405,16.2851576 15.1053276,12.657969 Z" id="Shape" fill="#787474"></path>
            <path d="M12.0953077,9.53215656 C10.9256261,8.92380459 7.9808498,8.88030886 7.98084983,8.88030889 L7.98084983,8.87560664 C7.98084983,8.87560664 5.03607354,8.91851454 3.86697971,9.5262788 C2.69671032,10.1346308 2.26645559,10.424994 2.34756917,10.8299742 C2.428095,11.2355422 3.30153564,15.275352 3.30153564,15.3764501 C3.30153564,15.4775482 3.38441257,15.6521188 3.83994183,15.5210439 C4.2954711,15.3911446 7.98084983,15.2312685 7.98084983,15.2312685 L7.98084983,15.2371463 C7.98084983,15.2371463 11.6662286,15.3964347 12.1223456,15.5269217 C12.5778749,15.6579966 12.660164,15.4840138 12.660164,15.3823279 C12.660164,15.2800543 13.5336047,11.2408322 13.6147183,10.8352642 C13.6946563,10.4296962 13.2649893,10.1405086 12.0953077,9.53215656 Z" id="Shape" fill="#121215"></path>
            <path d="M14.1789868,11.5012186 C14.1789868,11.5012186 14.1642923,16.1493804 14.1789868,17.5253727 C14.1925057,18.9007772 14.1642923,20.7546344 14.0631942,22.0142463 C13.9615083,23.274446 13.7305109,28.9353523 13.7305109,28.9353523 L13.7305109,29.0511449 C13.7305109,29.0511449 13.0063663,27.0814951 12.8611847,25.5614968 C12.5420203,24.069712 12.6872019,20.3913866 12.8611847,18.1472437 C12.9328938,15.918383 14.0338052,11.8920921 14.1789868,11.5012186 Z" id="Shape" fill="#101114"></path>
            <path d="M12.3580452,27.4982309 C12.2739927,26.9768704 12.2016958,27.1291053 12.1811236,27.0861974 C12.1605513,27.0421139 11.6350762,27.1837688 11.4223,27.2378445 C9.70657104,27.5423144 7.98084983,27.4664908 7.98084983,27.4664908 L7.98084983,27.460613 C7.98084983,27.460613 6.25512863,27.5364366 4.53998745,27.2331423 C4.32721119,27.1784788 3.80173615,27.0374116 3.78116387,27.0809073 C3.7600038,27.1238152 3.68770688,26.9721681 3.60424215,27.4935287 C3.52077742,28.0148893 3.08405712,31.1642129 3.11579725,31.1971286 C3.14694958,31.2294565 4.18673188,31.8478007 6.0270701,32.1416906 C6.43205032,32.1599117 7.98084983,32.2339719 7.98084983,32.2280942 L7.98084983,32.2339719 C7.98084983,32.2386742 9.52964935,32.1657895 9.93580512,32.1463928 C11.7755556,31.8536785 12.8147501,31.2335709 12.8459024,31.2024186 C12.8776425,31.1695029 12.4409222,28.0201793 12.3580452,27.4982309 Z" id="Shape" fill="#131417"></path>
            <path d="M11.0778611,0.43706988 C11.0382556,0.407956614 10.9941377,0.385928271 10.947374,0.371916859 C10.7434144,0.309780185 10.8286424,0.330291328 11.0778611,0.43706988 Z M14.3141761,3.72371757 C13.9938362,1.79580016 11.8161124,0.743674489 11.0778611,0.434502374 C11.8196391,0.939405136 12.3462897,3.78484667 12.7436287,5.59168146 C13.1633034,7.50314105 13.396652,10.5831067 13.396652,10.5831067 C13.396652,10.5831067 14.2924282,10.7459216 14.712103,13.1652229 C15.0318551,14.685809 14.7420797,6.30113154 14.3141761,3.72371757 Z M5.03548575,0.387051085 C4.98893554,0.401842964 4.94491526,0.42393443 4.90499866,0.452535695 C5.15421726,0.346198337 5.2400331,0.32517119 5.03548575,0.387051085 Z M1.66927139,3.73899983 C1.24078,6.3175894 0.951004603,14.7010913 1.26958118,13.1805052 C1.68984366,10.7612039 2.58561992,10.5989767 2.58561996,10.5989767 C2.58562,10.5989768 2.8189685,7.51901111 3.23864318,5.60755152 C3.63598224,3.79954114 4.16263287,0.954687403 4.90441087,0.450372436 C4.16674732,0.758956795 1.98902356,1.81167022 1.66927139,3.73899983 Z" id="Shape" fill="#969292"></path>
            <path d="M12.7212931,20.374341 L14.1325522,19.3098719 L14.1325522,20.5700716 L12.7212931,21.4599701 L12.7212931,20.374341 Z M3.22277316,30.3695348 C3.16223185,30.843873 3.12226281,31.1859608 3.13284286,31.1971286 C3.16399519,31.2294565 4.2031897,31.8478007 6.04352792,32.1416906 C6.44968369,32.1599117 7.99789541,32.2339719 7.99789541,32.2280942 L7.99789541,32.2339719 C7.99789541,32.2386742 9.54669493,32.1657895 9.95285073,32.1463928 C11.7926012,31.8536785 12.8323835,31.2335709 12.8635358,31.2024186 C12.8799936,31.1847852 12.7671399,30.3084057 12.6448817,29.4061638 L3.22277316,30.3695348 Z" id="Shape" fill="#202226"></path>
            <path d="M3.05114148,14.1956007 L12.070621,12.0584337 L13.4372088,11.622889 C13.5224368,11.2255499 13.5847415,10.9298967 13.6035504,10.8346764 C13.6840763,10.4296962 13.2538215,10.1399208 12.0841399,9.5315688 C10.9144583,8.92321683 7.96968198,8.8797211 7.96968202,8.8797211 L7.96968202,8.87501889 C7.96968202,8.87501889 5.02549349,8.91792679 3.85581186,9.525691 C2.68613027,10.134043 2.25528773,10.4244062 2.33581356,10.8293864 C2.38930152,11.0968261 2.78605282,12.9389277 3.05114148,14.1956007 Z" id="Shape" fill="#212428"></path>
            <path d="M1.81562853,11.5170886 C1.81562853,11.5170886 1.82973525,16.1652505 1.81562853,17.5412428 C1.80093402,18.9166473 1.82973525,20.7705045 1.93142115,22.0301163 C2.03251925,23.290316 2.26410444,28.9512223 2.26410444,28.9512224 L2.26410444,29.0676027 C2.26410444,29.0676027 2.98766127,27.0985407 3.13284286,25.5773668 C3.45141944,24.0867575 3.30682564,20.4084321 3.13284286,18.1637015 C3.06172154,15.9336653 1.96022237,11.9073743 1.81562853,11.5170886 Z" id="Shape" fill="#101114"></path>
            <path d="M15.1053276,12.668549 C15.2293491,9.22768666 15.2158301,9.30468583 15.2140668,9.32231924 C15.2205324,9.25119791 15.4691632,6.40046633 14.9971761,3.67669521 C14.5193112,0.918245065 11.4128955,0.158245937 11.4128955,0.158245898 L11.2536072,0.152368094 L7.98143759,0.0271710173 L7.98143759,0.0436288759 L4.7415959,0.1676504 L4.58230759,0.173528165 C4.58230759,0.173528165 1.47647964,0.933527332 0.998026958,3.69138968 C0.526039874,6.41692415 0.774082883,9.26706794 0.781136278,9.33701371 C0.77937293,9.32055589 0.766441769,9.24414452 0.889875497,12.6844191 C1.02036258,16.3110198 0.660641414,25.2605536 0.710014913,26.3467705 C0.759388412,27.4323996 0.628901327,29.7347327 0.846379802,30.3430847 C1.06327052,30.9508489 1.80152182,33.9056174 1.80152182,33.9056174 C1.80152182,33.9056174 2.99706573,36.1914927 8.01376547,35.8494049 L8.01376547,35.8364738 C13.0022518,36.1668059 14.1936812,33.8897474 14.1936812,33.8897474 C14.1936812,33.8897474 14.9319325,30.9361544 15.1494111,30.3278024 C15.3663018,29.7200382 15.2358147,27.4171173 15.2851882,26.3309004 C15.3333861,25.2446835 14.9748405,16.2951498 15.1053276,12.668549 Z M14.8884369,30.3842293 C14.2800849,33.9602809 13.3972397,34.539244 12.3974265,35.075299 C11.3987888,35.6107663 7.9808498,35.6830632 7.98084983,35.6830632 L7.98084983,35.69717 C7.63170868,35.6889411 4.53939969,35.5960719 3.5971888,35.0905813 C2.59796329,34.5557018 1.71453043,33.976151 1.10676621,30.3989237 C0.498414242,26.8222843 1.34540476,25.3739951 1.23666554,22.3122506 C1.12851408,19.2493306 1.13968189,11.3625026 1.17142198,10.4731919 C1.20374986,9.58329341 0.955119058,3.41395765 1.81327743,2.52464699 C2.670848,1.63357298 3.89166644,0.412754545 4.61463547,0.368083259 C5.04706893,0.345035094 5.47999834,0.332492099 5.91304084,0.330465368 L5.91304084,0.308717501 L8.01435327,0.308717501 L8.01435327,0.292847477 L10.0833378,0.292847477 L10.0833378,0.314595305 C10.4512879,0.318121964 10.9685341,0.328114223 11.3811554,0.353388787 C12.1041244,0.396884482 13.3255307,1.61829072 14.183689,2.50818913 C15.0412596,3.39926314 14.7926288,9.5685989 14.8243689,10.4579096 C14.8566968,11.3466325 14.8678646,19.2334605 14.7591253,22.2963806 C14.6492105,25.3587128 15.4962011,26.807002 14.8884369,30.3842293 Z" id="Shape" fill="#969292"></path>
            <path d="M1.97491684,32.9845667 C1.97491684,32.9845667 2.53977312,34.1854006 3.43731273,34.5045649 C4.33485234,34.8237293 4.98670001,34.9894832 4.98670001,34.9894832 C4.98670001,34.9894832 3.82818623,34.9759643 3.22806316,34.6344643 C2.62676455,34.2941398 1.9384745,33.7592603 1.97491684,32.9845667 Z" id="Shape" fill="#461218"></path>
            <path d="M4.61345992,0.368671055 C4.61345992,0.368671055 3.36090139,0.977023027 2.98472237,1.39023215 C2.60795558,1.80226572 2.05132822,2.51171583 2.03663371,2.59224166 C2.02252699,2.67159194 2.03663371,2.93903167 2.03663371,2.93903167 C2.03663371,2.93903167 4.27372323,0.514440407 4.61345992,0.368671055 Z" id="Shape" fill="#FFFFFF"></path>
            <path d="M7.99142985,0.0435137053 L8.00518505,0.0435137053 L8.00671345,0.0160032053 L7.99142985,0.0435137053 Z M10.8697871,0.461540248 C10.8586193,0.336343172 10.2238172,0.15295589 10.0662922,0.119452454 C9.91346949,0.088300124 8.10428356,0.0301099577 7.99671986,0.02658326 L7.9961321,0.0424533228 C7.87798838,0.0465677778 6.08055806,0.103582429 5.92773531,0.134734721 C5.77021035,0.167062604 5.1348205,0.352213196 5.12424049,0.477410273 C5.11307267,0.601431797 5.2335675,0.661385312 5.3846269,0.596729584 C5.53744961,0.531486023 5.74846252,0.346923226 5.91127749,0.308717501 C6.07409246,0.27109961 8.00200987,0.205268291 8.00200991,0.205268291 L8.00142211,0.190573781 C8.15189371,0.195276032 9.92522506,0.256992896 10.0815745,0.292847477 C10.2449772,0.331640921 10.4565779,0.515615998 10.6082251,0.580859521 C10.7598723,0.646103045 10.8803671,0.586737325 10.8697871,0.461540248 Z" id="Shape" fill="#1D2021"></path>
            <path d="M1.41417498,12.9618511 C1.41417498,12.9618511 0.154563098,13.4614639 0.0793273161,13.9610766 C0.00291594238,14.4595138 0.0140837544,14.5141773 0.0793273161,14.5141773 C0.143983082,14.5141773 1.48000634,13.8082539 1.48000634,13.8082539 L1.48000634,12.9618511 L1.41417498,12.9618511 Z" id="Shape" fill="#787474"></path>
            <polygon id="Shape" fill="#0D0E13" points="0.0893195366 14.6276188 0.0787395204 14.5141773 1.47941854 13.8082539 1.47941854 13.9058253"></polygon>
            <polygon id="Shape" fill="#202226" points="3.27273441 20.3896232 1.86088758 19.3257419 1.86088758 20.5847661 3.27273441 21.4758401"></polygon>
            <path d="M3.59307434,27.4982309 C3.67653907,26.9768704 3.74942375,27.1291053 3.76999606,27.0861974 C3.79056834,27.0421139 4.31604341,27.1837688 4.52881964,27.2378445 C6.24454858,27.5423144 7.96968202,27.4664908 7.96968202,27.4664908 L7.96968202,27.460613 C7.96968202,27.460613 9.69599102,27.5364366 11.4111322,27.2331423 C11.6239084,27.1784788 12.1487957,27.0374116 12.1699557,27.0809073 C12.190528,27.1238152 12.2634127,26.9721681 12.3468774,27.4935287 C12.4303421,28.0148893 12.8664747,31.1642129 12.8353224,31.1971286 C12.80417,31.2294565 11.7643877,31.8478007 9.92404951,32.1416906 C9.5184815,32.1599117 7.96968202,32.2339719 7.96968202,32.2280942 L7.96968202,32.2339719 C7.96968202,32.2386742 6.4208825,32.1657895 6.0153145,32.1463928 C4.17497623,31.8536785 3.13578173,31.2335709 3.10404164,31.2024186 C3.07288931,31.1695029 3.50960965,28.0201793 3.59307434,27.4982309 Z M3.91811652,9.53215656 C5.08779811,8.92380459 8.03257444,8.88030886 8.03257444,8.88030889 L8.03257444,8.87560664 C8.03257444,8.87560664 10.9773507,8.91851454 12.1470323,9.5262788 C13.3167139,10.1346308 13.7469687,10.424994 13.6658551,10.8299742 C13.5853293,11.2355422 12.7118886,15.275352 12.7118886,15.3764501 C12.7118886,15.4775482 12.6290117,15.6521188 12.1734824,15.5210439 C11.7179532,15.3911446 8.03257444,15.2312685 8.03257444,15.2312685 L8.03257444,15.2371463 C8.03257444,15.2371463 4.3471957,15.3964347 3.89107864,15.5269217 C3.43554938,15.6579966 3.3532602,15.4840138 3.35326024,15.3823279 C3.35326024,15.2800543 2.4798196,11.2408322 2.39870598,10.8352642 C2.31759239,10.4296962 2.74784713,10.1405086 3.91811652,9.53215656 Z" id="Shape" fill="#343C3E"></path>
            <path d="M3.40557264,9.80958859 C2.60795558,10.24866 2.31171463,10.5084587 2.37930926,10.8505464 C2.46042284,11.2555267 3.33386348,15.2959243 3.33386352,15.3970225 C3.33386356,15.4981206 3.41615266,15.6726911 3.87168192,15.5416163 C3.97513113,15.5122273 4.24433425,15.4810749 4.59758986,15.4510982 C4.04742805,14.1009682 3.58837213,11.1115206 3.40557264,9.80958859 Z M12.6196072,9.80253523 C13.4172243,10.2404311 13.7134652,10.5008175 13.6458706,10.8434931 C13.564757,11.2484733 12.6907286,15.288871 12.6907286,15.3905569 C12.6907286,15.491655 12.6090272,15.6656377 12.1534979,15.5351507 C12.0500487,15.5051739 11.7814334,15.4740215 11.4270022,15.4446326 C11.9777518,14.0927393 12.4379833,11.1044673 12.6196072,9.80253523 Z" id="Shape" fill="#2D3537"></path>
            <path d="M13.4154609,10.3215447 C13.1844635,10.1034784 12.7606744,9.8613132 12.1011855,9.51922544 C10.9315039,8.91087347 7.9867276,8.86737773 7.9867276,8.86737773 L7.9867276,8.87266774 L7.97908649,8.87325554 L7.97908649,8.87560664 C7.74279905,8.88030889 5.00021896,8.94555242 3.88108642,9.5262788 C3.2215976,9.86954214 2.79722067,10.1111196 2.56681099,10.3285981 L3.60718105,11.1450241 C3.60718105,11.1450241 5.72083685,10.8111652 8.00377322,10.7729595 L8.00377322,10.7647306 C10.2731906,10.8058752 12.369213,11.0262926 12.369213,11.0262926 L13.4154609,10.3215447 Z" id="Shape" fill="#161819"></path>
            <path d="M11.3799798,0.353388787 C11.3799798,0.353388787 12.6331262,0.96174076 13.0093051,1.37377433 C13.3854842,1.78698345 13.9432871,2.49643357 13.9573938,2.5757838 C13.9715005,2.65572184 13.9573938,2.9237494 13.9573938,2.9237494 C13.9573938,2.9237494 11.7203043,0.497982586 11.3799798,0.353388787 Z" id="Shape" fill="#FFFFFF"></path>
            <path d="M9.77534126,0.748964497 L5.83721726,0.748964497 C5.83721726,0.748964497 5.02608128,0.981725278 4.76510708,3.93414272 C4.50472066,6.88832352 4.04155025,9.14774866 5.86601845,8.62580029 C7.69048665,8.1044397 8.67501764,8.56819788 9.48615362,8.51000767 C10.2972896,8.45240526 11.542207,9.35053263 11.0790366,5.32482949 C10.6158663,1.29912634 10.557676,1.06754111 9.77534126,0.748964497 Z" id="Shape" fill="#969292"></path>
            <path d="M5.71437129,8.33014709 L6.38032571,1.65414526 L5.88776631,4.01349296 L5.71437129,8.33014709 Z M10.280244,8.31368927 L9.61370184,1.63886299 L10.1062612,3.99879849 L10.280244,8.31368927 Z" id="Shape" fill="#787474"></path>
            <path d="M14.0191107,32.9686966 C14.0191107,32.9686966 13.4542544,34.1707061 12.5567148,34.4892827 C11.6591752,34.8072715 11.0067397,34.9742009 11.0067397,34.9742009 C11.0067397,34.9742009 12.1658413,34.960682 12.7665521,34.619182 C13.3678508,34.2788576 14.055553,33.7433903 14.0191107,32.9686966 Z" id="Shape" fill="#4D1018"></path>
            <path d="M3.76999606,27.1020674 C3.74942379,27.1443875 3.67653907,26.9927404 3.59307434,27.5129254 C3.50960961,28.0354615 3.07288931,31.185373 3.10404164,31.2177009 C3.11932391,31.2323954 3.36971806,31.3858058 3.83053733,31.572132 L4.42889709,27.22844 C4.18496849,27.1649598 3.78821723,27.0632739 3.76999606,27.1020674 Z M12.3468774,27.5129254 C12.2634127,26.9927404 12.190528,27.1443875 12.1699557,27.1020674 C12.1523224,27.0632739 11.7549833,27.164372 11.5104669,27.22844 L12.1088267,31.572132 C12.5696459,31.3863936 12.8206279,31.2329831 12.8353224,31.2177009 C12.8664747,31.185373 12.4303422,28.0354616 12.3468774,27.5129254 Z" id="Shape" fill="#2E3436"></path>
            <path d="M14.5792647,12.9459811 C14.5792647,12.9459811 15.8400522,13.445006 15.915288,13.9446188 C15.9911116,14.4442315 15.9805316,14.4977195 15.915288,14.4977195 C15.8500444,14.4977195 14.5140212,13.7917961 14.5140212,13.7917961 L14.5140212,12.9459811 L14.5792647,12.9459811 Z" id="Shape" fill="#787474"></path>
            <polygon id="Shape" fill="#0D0E13" points="15.904708 14.6117488 15.9158758 14.4983073 14.514609 13.7923838 14.514609 13.8905431"></polygon>
            <path d="M9.94462179,31.9824022 L5.81782054,31.9824022 C5.81782054,31.9824022 3.55839535,31.6779323 3.86286522,32.6336622 C4.16733508,33.589392 3.55839531,34.7626002 6.68655892,34.7626003 L9.0758834,34.7626003 C12.2034592,34.7626003 11.595695,33.589392 11.9001649,32.6336622 C12.2034592,31.6779324 9.94462179,31.9824022 9.94462179,31.9824022 Z" id="Shape" fill="#969292"></path>
            <path d="M8.12720698,31.4845528 C6.21398404,31.4845528 4.49296509,31.0601759 3.29977229,30.3842293 L3.22277316,30.3695348 C3.10051498,31.2729522 3.1140339,31.2006552 3.13049172,31.2177009 C3.16164405,31.2506165 4.20142635,31.8689608 6.04176457,32.1622628 C6.44733258,32.1810718 7.99613206,32.2539565 7.9961321,32.2480787 L7.9961321,32.2433765 C7.9961321,32.2480787 9.54434383,32.1757818 9.95049959,32.1563851 C11.7908379,31.8636708 12.8294446,31.2447387 12.8611847,31.2124109 C12.8711769,31.2024186 12.8370857,30.9044143 12.7824222,30.478274 C11.5992217,31.0995571 9.95049959,31.4845529 8.12720698,31.4845528 Z" id="Shape" fill="#202226"></path>
            <path d="M10.8362836,18.5046137 C11.2935762,17.0863013 10.5312259,16.5861008 9.67659426,16.4356292 C9.00182317,16.3174854 7.32253657,16.3527522 6.77413811,16.3897824 C5.78784376,16.4562015 4.7016269,16.8729373 5.22827749,18.5046137 C6.123466,21.2818728 5.18007955,25.0712885 5.22827749,25.5168255 C5.26354428,25.8453944 5.74258472,26.396144 6.7071312,26.53486 C7.05039455,26.5836457 9.23046946,26.5795313 9.62545741,26.4831354 C10.4095556,26.2915192 10.8039557,25.8124787 10.8362836,25.5162378 C10.8838937,25.0712885 9.94050733,21.2818728 10.8362836,18.5046137 Z" id="Shape" fill="#969292"></path>
        </g>
    </g>
</svg>