<?xml version="1.0" encoding="UTF-8"?>
<svg width="24px" height="21px" viewBox="0 0 24 21" version="1.1" xmlns="http://www.w3.org/2000/svg" xmlns:xlink="http://www.w3.org/1999/xlink">
    <!-- Generator: Sketch 49 (51002) - http://www.bohemiancoding.com/sketch -->
    <title>icon_truck_online</title>
    <desc>Created with Sketch.</desc>
    <defs></defs>
    <g id="Page-1" stroke="none" stroke-width="1" fill="none" fill-rule="evenodd">
        <g id="icon_truck_online" transform="translate(12.000000, 10.500000) scale(-1, 1) translate(-12.000000, -10.500000) " fill-rule="nonzero">
            <path d="M22.125,14.8705882 L1.875,14.8705882 C1.46076563,14.8705882 1.125,14.5229721 1.125,14.0941176 L1.125,13.3176471 L22.125,13.3176471 L22.125,14.8705882 Z" id="Shape" fill="#5C546A"></path>
            <path d="M7.875,5.16470588 L2.25,5.16470588 C2.04271875,5.16470588 1.875,5.33853824 1.875,5.55294118 L1.875,10.2117647 C1.875,10.4263618 2.04271875,10.6 2.25,10.6 L7.875,10.6 C8.08228125,10.6 8.25,10.4263618 8.25,10.2117647 L8.25,5.55294118 C8.25,5.33853824 8.08228125,5.16470588 7.875,5.16470588 Z" id="Shape" fill="#FFA530"></path>
            <path d="M12.375,4 L6.75,4 C6.54271875,4 6.375,4.17383235 6.375,4.38823529 L6.375,9.04705882 C6.375,9.26165588 6.54271875,9.43529412 6.75,9.43529412 L12.375,9.43529412 C12.5822813,9.43529412 12.75,9.26165588 12.75,9.04705882 L12.75,4.38823529 C12.75,4.17383235 12.5822813,4 12.375,4 Z" id="Shape" fill="#FFD100"></path>
            <path d="M18.2764687,13.4435324 L14.1514687,8.78470882 C14.0804643,8.70443245 13.9801381,8.65875062 13.875,8.65882353 L0.75,8.65882353 C0.3365625,8.65882353 0,9.00726471 0,9.43529412 L0,12.5411765 C0,13.3976235 0.67275,14.0941176 1.5,14.0941176 L18,14.0941176 C18.148727,14.0941703 18.2833922,14.0031104 18.343125,13.8620985 C18.4030946,13.7212431 18.3769395,13.5570025 18.2764688,13.4435324 Z" id="Shape" fill="#2FC25B"></path>
            <path d="M22.7684531,8.65882353 L19.7438437,8.049925 L18.7387031,5.15296176 C18.438,4.45248824 17.765625,4 17.0251406,4 L14.625,4 C14.0046563,4 13.5,4.52246765 13.5,5.16470588 L13.5,11.7647059 C13.5,13.0492309 14.5092656,14.0941176 15.75,14.0941176 L22.875,14.0941176 C23.4953437,14.0941176 24,13.57165 24,12.9294118 L24,9.82352941 C24,9.07282794 23.4821719,8.79339559 22.7684531,8.65882353 Z" id="Shape" fill="#4FD577"></path>
            <path d="M24,10.9882353 L22.6875,10.9882353 C22.3768594,10.9882353 22.125,10.7274868 22.125,10.4058824 C22.125,10.0842779 22.3768594,9.82352941 22.6875,9.82352941 L24,9.82352941" id="Shape" fill="#FFCD1E"></path>
            <path d="M0,12.1529412 C0.621328125,12.1529412 1.125,11.6314926 1.125,10.9882353 L1.125,9.82352941 C1.125,9.60911298 0.957106781,9.43529412 0.75,9.43529412 L0,9.43529412 L0,12.1529412 Z" id="Shape" fill="#88F9A9"></path>
            <path d="M2.62504687,14.4823529 C2.62504686,15.4532747 3.12536903,16.3504435 3.93754686,16.8359044 C4.7497247,17.3213653 5.75036905,17.3213653 6.56254689,16.8359044 C7.37472472,16.3504435 7.87504689,15.4532747 7.87504687,14.4823529 C7.87504689,13.5114312 7.37472472,12.6142624 6.56254689,12.1288015 C5.75036905,11.6433406 4.7497247,11.6433406 3.93754686,12.1288015 C3.12536903,12.6142624 2.62504686,13.5114312 2.62504687,14.4823529 Z" id="Shape" fill="#5C546A"></path>
            <path d="M3.75004687,14.4823529 C3.75004687,15.3400187 4.42161975,16.0352941 5.25004687,16.0352941 C6.078474,16.0352941 6.75004687,15.3400187 6.75004687,14.4823529 C6.75004687,13.6246872 6.078474,12.9294118 5.25004687,12.9294118 C4.42161975,12.9294118 3.75004687,13.6246872 3.75004687,14.4823529 Z" id="Shape" fill="#8A8895"></path>
            <path d="M17.625,14.4823529 C17.625,15.983268 18.8002525,17.2 20.25,17.2 C21.6997475,17.2 22.875,15.983268 22.875,14.4823529 C22.875,12.9814379 21.6997475,11.7647059 20.25,11.7647059 C18.8002525,11.7647059 17.625,12.9814379 17.625,14.4823529 Z" id="Shape" fill="#5C546A"></path>
            <path d="M18.75,14.4823529 C18.75,15.3400187 19.4215729,16.0352941 20.25,16.0352941 C21.0784271,16.0352941 21.75,15.3400187 21.75,14.4823529 C21.75,13.6246872 21.0784271,12.9294118 20.25,12.9294118 C19.4215729,12.9294118 18.75,13.6246872 18.75,14.4823529 Z" id="Shape" fill="#8A8895"></path>
            <path d="M18.7386562,5.15296176 C18.6800625,5.01644853 18.6037031,4.89265 18.5190937,4.77647059 L14.625,4.77647059 L14.625,7.27345441 C14.625,7.70226029 14.9608125,8.049925 15.375,8.049925 L19.7437969,8.049925 L18.7386563,5.15296176 Z" id="Shape" fill="#5C546A"></path>
            <polygon id="Shape" fill="#FFFFFF" points="23.25 9.82352941 24 9.82352941 24 10.9882353 23.25 10.9882353"></polygon>
        </g>
    </g>
</svg>