<?xml version="1.0" encoding="UTF-8"?>
<svg width="24px" height="21px" viewBox="0 0 24 21" version="1.1" xmlns="http://www.w3.org/2000/svg" xmlns:xlink="http://www.w3.org/1999/xlink">
    <!-- Generator: Sketch 49 (51002) - http://www.bohemiancoding.com/sketch -->
    <title>warn</title>
    <desc>Created with Sketch.</desc>
    <defs></defs>
    <g id="Page-1" stroke="none" stroke-width="1" fill="none" fill-rule="evenodd">
        <g id="warn" fill-rule="nonzero">
            <g id="online" transform="translate(0.000000, 4.000000)">
                <g id="icon_truck_online" transform="translate(12.000000, 7.000000) scale(-1, 1) translate(-12.000000, -7.000000) ">
                    <path d="M22.125,10.8705882 L1.875,10.8705882 C1.46076563,10.8705882 1.125,10.5229721 1.125,10.0941176 L1.125,9.31764706 L22.125,9.31764706 L22.125,10.8705882 Z" id="Shape" fill="#5C546A"></path>
                    <path d="M7.875,1.16470588 L2.25,1.16470588 C2.04271875,1.16470588 1.875,1.33853824 1.875,1.55294118 L1.875,6.21176471 C1.875,6.42636176 2.04271875,6.6 2.25,6.6 L7.875,6.6 C8.08228125,6.6 8.25,6.42636176 8.25,6.21176471 L8.25,1.55294118 C8.25,1.33853824 8.08228125,1.16470588 7.875,1.16470588 Z" id="Shape" fill="#FFA530"></path>
                    <path d="M12.375,0 L6.75,0 C6.54271875,0 6.375,0.173832353 6.375,0.388235294 L6.375,5.04705882 C6.375,5.26165588 6.54271875,5.43529412 6.75,5.43529412 L12.375,5.43529412 C12.5822813,5.43529412 12.75,5.26165588 12.75,5.04705882 L12.75,0.388235294 C12.75,0.173832353 12.5822813,0 12.375,0 Z" id="Shape" fill="#FFD100"></path>
                    <path d="M18.2764687,9.44353235 L14.1514687,4.78470882 C14.0804643,4.70443245 13.9801381,4.65875062 13.875,4.65882353 L0.75,4.65882353 C0.3365625,4.65882353 0,5.00726471 0,5.43529412 L0,8.54117647 C0,9.39762353 0.67275,10.0941176 1.5,10.0941176 L18,10.0941176 C18.148727,10.0941703 18.2833922,10.0031104 18.343125,9.86209853 C18.4030946,9.72124305 18.3769395,9.55700251 18.2764688,9.44353235 Z" id="Shape" fill="#D61B00"></path>
                    <path d="M22.7684531,4.65882353 L19.7438437,4.049925 L18.7387031,1.15296176 C18.438,0.452488235 17.765625,0 17.0251406,0 L14.625,0 C14.0046563,0 13.5,0.522467647 13.5,1.16470588 L13.5,7.76470588 C13.5,9.04923088 14.5092656,10.0941176 15.75,10.0941176 L22.875,10.0941176 C23.4953437,10.0941176 24,9.57165 24,8.92941176 L24,5.82352941 C24,5.07282794 23.4821719,4.79339559 22.7684531,4.65882353 Z" id="Shape" fill="#FF6A55"></path>
                    <path d="M24,6.98823529 L22.6875,6.98823529 C22.3768594,6.98823529 22.125,6.72748676 22.125,6.40588235 C22.125,6.08427794 22.3768594,5.82352941 22.6875,5.82352941 L24,5.82352941" id="Shape" fill="#FFCD1E"></path>
                    <path d="M0,8.15294118 C0.621328125,8.15294118 1.125,7.63149265 1.125,6.98823529 L1.125,5.82352941 C1.125,5.60911298 0.957106781,5.43529412 0.75,5.43529412 L0,5.43529412 L0,8.15294118 Z" id="Shape" fill="#FF6A55"></path>
                    <path d="M2.62504688,10.4823529 C2.62504686,11.4532747 3.12536903,12.3504435 3.93754686,12.8359044 C4.7497247,13.3213653 5.75036905,13.3213653 6.56254689,12.8359044 C7.37472472,12.3504435 7.87504689,11.4532747 7.87504687,10.4823529 C7.87504689,9.51143115 7.37472472,8.61426241 6.56254689,8.12880152 C5.75036905,7.64334062 4.7497247,7.64334062 3.93754686,8.12880152 C3.12536903,8.61426241 2.62504686,9.51143115 2.62504687,10.4823529 Z" id="Shape" fill="#5C546A"></path>
                    <path d="M3.75004687,10.4823529 C3.75004687,11.3400187 4.42161975,12.0352941 5.25004687,12.0352941 C6.078474,12.0352941 6.75004687,11.3400187 6.75004687,10.4823529 C6.75004687,9.62468721 6.078474,8.92941176 5.25004687,8.92941176 C4.42161975,8.92941176 3.75004687,9.62468721 3.75004687,10.4823529 Z" id="Shape" fill="#8A8895"></path>
                    <path d="M17.625,10.4823529 C17.625,11.983268 18.8002525,13.2 20.25,13.2 C21.6997475,13.2 22.875,11.983268 22.875,10.4823529 C22.875,8.98143792 21.6997475,7.76470588 20.25,7.76470588 C18.8002525,7.76470588 17.625,8.98143792 17.625,10.4823529 Z" id="Shape" fill="#5C546A"></path>
                    <path d="M18.75,10.4823529 C18.75,11.3400187 19.4215729,12.0352941 20.25,12.0352941 C21.0784271,12.0352941 21.75,11.3400187 21.75,10.4823529 C21.75,9.62468721 21.0784271,8.92941176 20.25,8.92941176 C19.4215729,8.92941176 18.75,9.62468721 18.75,10.4823529 Z" id="Shape" fill="#8A8895"></path>
                    <path d="M18.7386562,1.15296176 C18.6800625,1.01644853 18.6037031,0.89265 18.5190937,0.776470588 L14.625,0.776470588 L14.625,3.27345441 C14.625,3.70226029 14.9608125,4.049925 15.375,4.049925 L19.7437969,4.049925 L18.7386563,1.15296176 Z" id="Shape" fill="#5C546A"></path>
                    <polygon id="Shape" fill="#FFFFFF" points="23.25 5.82352941 24 5.82352941 24 6.98823529 23.25 6.98823529"></polygon>
                </g>
            </g>
        </g>
    </g>
</svg>