<?xml version="1.0" encoding="UTF-8"?>
<svg width="24px" height="21px" viewBox="0 0 24 21" version="1.1" xmlns="http://www.w3.org/2000/svg" xmlns:xlink="http://www.w3.org/1999/xlink">
    <!-- Generator: Sketch 49 (51002) - http://www.bohemiancoding.com/sketch -->
    <title>offline</title>
    <desc>Created with Sketch.</desc>
    <defs></defs>
    <g id="Page-1" stroke="none" stroke-width="1" fill="none" fill-rule="evenodd">
        <g id="offline" fill-rule="nonzero">
            <g id="icon_truck_offline" transform="translate(0.000000, 4.000000)">
                <g id="货车" transform="translate(12.000000, 7.000000) scale(-1, 1) translate(-12.000000, -7.000000) translate(-0.000000, 0.000000)">
                    <path d="M22.1249997,11.5294118 L1.87499997,11.5294118 C1.4607656,11.5294118 1.12499998,11.1607279 1.12499998,10.7058824 L1.12499998,9.88235294 L22.1249997,9.88235294 L22.1249997,11.5294118 Z" id="Shape" fill="#5C546A"></path>
                    <path d="M7.87499989,1.23529412 L2.24999997,1.23529412 C2.04271872,1.23529412 1.87499997,1.41966176 1.87499997,1.64705882 L1.87499997,6.58823529 C1.87499997,6.81583824 2.04271872,7 2.24999997,7 L7.87499989,7 C8.08228113,7 8.24999988,6.81583824 8.24999988,6.58823529 L8.24999988,1.64705882 C8.24999988,1.41966176 8.08228113,1.23529412 7.87499989,1.23529412 Z" id="Shape" fill="#8A8895"></path>
                    <path d="M12.3749998,0 L6.7499999,0 C6.54271866,0 6.37499991,0.184367647 6.37499991,0.411764706 L6.37499991,5.35294118 C6.37499991,5.58054412 6.54271866,5.76470588 6.7499999,5.76470588 L12.3749998,5.76470588 C12.5822811,5.76470588 12.7499998,5.58054412 12.7499998,5.35294118 L12.7499998,0.411764706 C12.7499998,0.184367647 12.5822811,0 12.3749998,0 Z" id="Shape" fill="#BCBCBC"></path>
                    <path d="M18.2764685,10.0158676 L14.1514685,5.07469118 C14.0804641,4.98954957 13.9801379,4.94109914 13.8749998,4.94117647 L0.749999989,4.94117647 C0.336562495,4.94117647 0,5.31073529 0,5.76470588 L0,9.05882353 C0,9.96717647 0.67274999,10.7058824 1.49999998,10.7058824 L17.9999997,10.7058824 C18.1487267,10.7059382 18.283392,10.6093596 18.3431247,10.4598015 C18.4030943,10.3104093 18.3769392,10.1362148 18.2764685,10.0158676 Z" id="Shape" fill="#787474"></path>
                    <path d="M22.7684528,4.94117647 L19.7438435,4.295375 L18.7387029,1.22283824 C18.4379997,0.479911765 17.7656247,0 17.0251404,0 L14.6249998,0 C14.004656,0 13.4999998,0.554132353 13.4999998,1.23529412 L13.4999998,8.23529412 C13.4999998,9.59766912 14.5092654,10.7058824 15.7499998,10.7058824 L22.8749997,10.7058824 C23.4953434,10.7058824 23.9999997,10.15175 23.9999997,9.47058824 L23.9999997,6.17647059 C23.9999997,5.38027206 23.4821715,5.08390441 22.7684528,4.94117647 Z" id="Shape" fill="#969292"></path>
                    <path d="M23.9999997,7.41176471 L22.6874997,7.41176471 C22.3768591,7.41176471 22.1249997,7.13521324 22.1249997,6.79411765 C22.1249997,6.45302206 22.3768591,6.17647059 22.6874997,6.17647059 L23.9999997,6.17647059" id="Shape" fill="#FFFFFF"></path>
                    <path d="M0,8.64705882 C0.621328116,8.64705882 1.12499998,8.09400735 1.12499998,7.41176471 L1.12499998,6.17647059 C1.12499998,5.94905922 0.957106767,5.76470588 0.749999989,5.76470588 L0,5.76470588 L0,8.64705882 Z" id="Shape" fill="#969292"></path>
                    <path d="M2.62504684,11.1176471 C2.62504682,12.1474126 3.12536899,13.0989552 3.93754681,13.613838 C4.74972463,14.1287207 5.75036897,14.1287207 6.56254679,13.613838 C7.37472461,13.0989552 7.87504678,12.1474126 7.87504676,11.1176471 C7.87504678,10.0878815 7.37472461,9.13633892 6.56254679,8.62145615 C5.75036897,8.10657338 4.74972463,8.10657338 3.93754681,8.62145615 C3.12536899,9.13633892 2.62504682,10.0878815 2.62504684,11.1176471 Z" id="Shape" fill="#5C546A"></path>
                    <path d="M3.75004682,11.1176471 C3.75004682,12.0272925 4.42161969,12.7647059 5.2500468,12.7647059 C6.07847391,12.7647059 6.75004678,12.0272925 6.75004678,11.1176471 C6.75004678,10.2080016 6.07847391,9.47058824 5.2500468,9.47058824 C4.42161969,9.47058824 3.75004682,10.2080016 3.75004682,11.1176471 Z" id="Shape" fill="#8A8895"></path>
                    <path d="M17.6249997,11.1176471 C17.6249997,12.7095266 18.8002523,14 20.2499997,14 C21.6997472,14 22.8749997,12.7095266 22.8749997,11.1176471 C22.8749997,9.52576749 21.6997472,8.23529412 20.2499997,8.23529412 C18.8002523,8.23529412 17.6249997,9.52576749 17.6249997,11.1176471 Z" id="Shape" fill="#5C546A"></path>
                    <path d="M18.7499997,11.1176471 C18.7499997,12.0272925 19.4215726,12.7647059 20.2499997,12.7647059 C21.0784268,12.7647059 21.7499997,12.0272925 21.7499997,11.1176471 C21.7499997,10.2080016 21.0784268,9.47058824 20.2499997,9.47058824 C19.4215726,9.47058824 18.7499997,10.2080016 18.7499997,11.1176471 Z" id="Shape" fill="#8A8895"></path>
                    <path d="M18.738656,1.22283824 C18.6800622,1.07805147 18.6037029,0.94675 18.5190935,0.823529412 L14.6249998,0.823529412 L14.6249998,3.47184559 C14.6249998,3.92663971 14.9608123,4.295375 15.3749998,4.295375 L19.7437966,4.295375 L18.738656,1.22283824 Z" id="Shape" fill="#5C546A"></path>
                    <polygon id="Shape" fill="#FFFFFF" points="23.2499997 6.17647059 23.9999997 6.17647059 23.9999997 7.41176471 23.2499997 7.41176471"></polygon>
                </g>
            </g>
        </g>
    </g>
</svg>