<?xml version="1.0" encoding="UTF-8"?>
<svg width="24px" height="21px" viewBox="0 0 24 21" version="1.1" xmlns="http://www.w3.org/2000/svg" xmlns:xlink="http://www.w3.org/1999/xlink">
    <!-- Generator: Sketch 49 (51002) - http://www.bohemiancoding.com/sketch -->
    <title>online_stop</title>
    <desc>Created with Sketch.</desc>
    <defs></defs>
    <g id="Page-1" stroke="none" stroke-width="1" fill="none" fill-rule="evenodd">
        <g id="online_stop" fill-rule="nonzero">
            <g id="icon_truck_online_stop" transform="translate(12.000000, 11.000000) scale(-1, 1) translate(-12.000000, -11.000000) translate(0.000000, 4.000000)">
                <path d="M22.125,11.3076923 L1.875,11.3076923 C1.46076563,11.3076923 1.125,10.9460986 1.125,10.5 L1.125,9.69230769 L22.125,9.69230769 L22.125,11.3076923 Z" id="Shape" fill="#5C546A"></path>
                <path d="M7.875,1.21153846 L2.25,1.21153846 C2.04271875,1.21153846 1.875,1.39236058 1.875,1.61538462 L1.875,6.46153846 C1.875,6.68476442 2.04271875,6.86538462 2.25,6.86538462 L7.875,6.86538462 C8.08228125,6.86538462 8.25,6.68476442 8.25,6.46153846 L8.25,1.61538462 C8.25,1.39236058 8.08228125,1.21153846 7.875,1.21153846 Z" id="Shape" fill="#8A8895"></path>
                <path d="M12.375,0 L6.75,0 C6.54271875,0 6.375,0.180822115 6.375,0.403846154 L6.375,5.25 C6.375,5.47322596 6.54271875,5.65384615 6.75,5.65384615 L12.375,5.65384615 C12.5822813,5.65384615 12.75,5.47322596 12.75,5.25 L12.75,0.403846154 C12.75,0.180822115 12.5822813,0 12.375,0 Z" id="Shape" fill="#33CCEE"></path>
                <path d="M18.2764687,9.82325481 L14.1514687,4.97710096 C14.0804643,4.89359669 13.9801381,4.84607801 13.875,4.84615385 L0.75,4.84615385 C0.3365625,4.84615385 0,5.20860577 0,5.65384615 L0,8.88461538 C0,9.7755 0.67275,10.5 1.5,10.5 L18,10.5 C18.148727,10.5000548 18.2833922,10.4053334 18.343125,10.2586514 C18.4030946,10.1121322 18.3769395,9.94128758 18.2764688,9.82325481 Z" id="Shape" fill="#00A4AD"></path>
                <path d="M22.7684531,4.84615385 L19.7438437,4.21277163 L18.7387031,1.19932212 C18.438,0.470682692 17.765625,0 17.0251406,0 L14.625,0 C14.0046563,0 13.5,0.543475962 13.5,1.21153846 L13.5,8.07692308 C13.5,9.41309856 14.5092656,10.5 15.75,10.5 L22.875,10.5 C23.4953437,10.5 24,9.95652404 24,9.28846154 L24,6.05769231 C24,5.27680529 23.4821719,4.98613702 22.7684531,4.84615385 Z" id="Shape" fill="#01D5E1"></path>
                <path d="M24,7.26923077 L22.6875,7.26923077 C22.3768594,7.26923077 22.125,6.9979976 22.125,6.66346154 C22.125,6.32892548 22.3768594,6.05769231 22.6875,6.05769231 L24,6.05769231" id="Shape" fill="#FFFFFF"></path>
                <path d="M0,8.48076923 C0.621328125,8.48076923 1.125,7.93835337 1.125,7.26923077 L1.125,6.05769231 C1.125,5.83465424 0.957106781,5.65384615 0.75,5.65384615 L0,5.65384615 L0,8.48076923 Z" id="Shape" fill="#63F7FF"></path>
                <path d="M2.62504687,10.9038462 C2.62504686,11.9138085 3.12536903,12.8470522 3.93754686,13.3520334 C4.7497247,13.8570146 5.75036905,13.8570146 6.56254689,13.3520334 C7.37472472,12.8470522 7.87504689,11.9138085 7.87504687,10.9038462 C7.87504689,9.8938838 7.37472472,8.9606401 6.56254689,8.45565892 C5.75036905,7.95067774 4.7497247,7.95067774 3.93754686,8.45565892 C3.12536903,8.9606401 2.62504686,9.8938838 2.62504687,10.9038462 Z" id="Shape" fill="#5C546A"></path>
                <path d="M3.75004687,10.9038462 C3.75004687,11.7959984 4.42161975,12.5192308 5.25004687,12.5192308 C6.078474,12.5192308 6.75004687,11.7959984 6.75004687,10.9038462 C6.75004687,10.0116939 6.078474,9.28846154 5.25004687,9.28846154 C4.42161975,9.28846154 3.75004687,10.0116939 3.75004687,10.9038462 Z" id="Shape" fill="#8A8895"></path>
                <path d="M17.625,10.9038462 C17.625,12.4651127 18.8002525,13.7307692 20.25,13.7307692 C21.6997475,13.7307692 22.875,12.4651127 22.875,10.9038462 C22.875,9.34257965 21.6997475,8.07692308 20.25,8.07692308 C18.8002525,8.07692308 17.625,9.34257965 17.625,10.9038462 Z" id="Shape" fill="#5C546A"></path>
                <path d="M18.75,10.9038462 C18.75,11.7959984 19.4215729,12.5192308 20.25,12.5192308 C21.0784271,12.5192308 21.75,11.7959984 21.75,10.9038462 C21.75,10.0116939 21.0784271,9.28846154 20.25,9.28846154 C19.4215729,9.28846154 18.75,10.0116939 18.75,10.9038462 Z" id="Shape" fill="#8A8895"></path>
                <path d="M18.7386562,1.19932212 C18.6800625,1.05731971 18.6037031,0.928543269 18.5190937,0.807692308 L14.625,0.807692308 L14.625,3.40507933 C14.625,3.8511274 14.9608125,4.21277163 15.375,4.21277163 L19.7437969,4.21277163 L18.7386563,1.19932212 Z" id="Shape" fill="#5C546A"></path>
                <polygon id="Shape" fill="#FFFFFF" points="23.25 6.05769231 24 6.05769231 24 7.26923077 23.25 7.26923077"></polygon>
            </g>
        </g>
    </g>
</svg>