<?xml version="1.0" encoding="UTF-8"?>
<svg width="24px" height="21px" viewBox="0 0 24 21" version="1.1" xmlns="http://www.w3.org/2000/svg" xmlns:xlink="http://www.w3.org/1999/xlink">
    <!-- Generator: Sketch 49 (51002) - http://www.bohemiancoding.com/sketch -->
    <title>icon_company</title>
    <desc>Created with Sketch.</desc>
    <defs>
        <polygon id="path-1" points="7 3.47025539 7 19 19 19 19 3.21480427 15.5983595 1"></polygon>
    </defs>
    <g id="Page-1" stroke="none" stroke-width="1" fill="none" fill-rule="evenodd">
        <g id="icon_company">
            <g id="Path-2">
                <use fill="#C6D8A8" fill-rule="evenodd" xlink:href="#path-1"></use>
                <path stroke="#C6D8A8" stroke-width="1" d="M7.5,3.84683386 L7.5,18.5 L18.5,18.5 L18.5,3.48589747 L15.5169253,1.54362091 L7.5,3.84683386 Z"></path>
            </g>
            <path d="M16.5458374,18.0018921 L15.015965,18.0018921 L14.9902344,6.00637817 C14.9902344,5.70132471 14.3461121,5.07541317 13.0578676,4.12864356 C12.7363833,3.9913695 12.3689726,3.94561148 12.0474882,4.08288554 L5.6637275,6.82836673 C5.25039047,7.01139881 5.03503418,7.49013102 5.03503418,7.99346924 L5.03503418,18.0018921 L3.45926336,18.0018921 C3.18370534,18.0018921 3,18.2678717 3,18.5424198 C3,18.8169679 3.18370534,19 3.45926336,19 L16.5458374,19 C16.8213954,19 17.0051008,18.8169679 17.0051008,18.5424198 C17.0051008,18.2678717 16.8213954,18.0018921 16.5458374,18.0018921 Z" id="Path" fill="#B0CA4B"></path>
            <path d="M7.44889071,10.3762693 L10.6386764,9.03017379 C11.0514722,8.87180961 11.464268,9.18853797 11.464268,9.62403945 C11.464268,9.90117676 11.3141604,10.138723 11.0889991,10.2179051 L7.8992134,11.5640006 C7.4864176,11.7223648 7.07362181,11.4056364 7.07362181,10.970135 C7.07362181,10.6929976 7.22372937,10.4554514 7.44889071,10.3762693 Z M7.44889071,12.7121409 L10.6386764,11.3660454 C11.0514722,11.2076812 11.464268,11.5244096 11.464268,11.9599111 C11.464268,12.2370484 11.3141604,12.4745946 11.0889991,12.5537767 L7.8992134,13.8998722 C7.4864176,14.0582364 7.07362181,13.741508 7.07362181,13.3060066 C7.07362181,13.0288693 7.22372937,12.791323 7.44889071,12.7121409 Z M7.44889071,15.0084215 L10.6386764,13.662326 C11.0514722,13.5039618 11.464268,13.8206901 11.464268,14.2561916 C11.464268,14.5333289 11.3141604,14.7708752 11.0889991,14.8500573 L7.93674029,16.2357438 C7.52394449,16.394108 7.1111487,16.0773797 7.1111487,15.6418782 C7.07362181,15.3647409 7.22372937,15.1271946 7.44889071,15.0084215 Z" id="company" fill="#222222" fill-rule="nonzero"></path>
            <path d="M12,12 L12,10.3595506 C12,10.1573034 12.245614,10 12.5614035,10 C12.877193,10 13.122807,10.1573034 13.122807,10.3595506 L13.122807,12 L12,12 Z M14.2807018,12 L14.2807018,10.3595506 C14.2807018,10.1573034 14.5263158,10 14.8421053,10 C15.1578947,10 15.4035088,10.1573034 15.4035088,10.3595506 L15.4035088,12 L14.2807018,12 Z M16.5964912,12 L16.5964912,10.3595506 C16.5964912,10.1573034 16.8421053,10 17.1578947,10 C17.4736842,10 17.7192982,10.1573034 17.7192982,10.3595506 L17.7192982,12 L16.5964912,12 Z M18.877193,12 L18.877193,10.3595506 C18.877193,10.1573034 19.122807,10 19.4385965,10 C19.754386,10 20,10.1573034 20,10.3595506 L20,12 L18.877193,12 Z" id="Shape" fill="#222222" fill-rule="nonzero" transform="translate(16.000000, 11.000000) rotate(90.000000) translate(-16.000000, -11.000000) "></path>
        </g>
    </g>
</svg>