<?xml version="1.0" encoding="UTF-8"?>
<svg width="50px" height="49px" viewBox="0 0 50 49" version="1.1" xmlns="http://www.w3.org/2000/svg" xmlns:xlink="http://www.w3.org/1999/xlink">
    <!-- Generator: Sketch 49 (51002) - http://www.bohemiancoding.com/sketch -->
    <title>icon_alarm</title>
    <desc>Created with Sketch.</desc>
    <defs></defs>
    <g id="Page-1" stroke="none" stroke-width="1" fill="none" fill-rule="evenodd">
        <path d="M24.9011066,14 C17.2240804,14 11,19.624375 11,26.5632144 L11,42 L39,42 L39,26.5632144 C39,19.6243192 32.7773389,14 25.100251,14 L24.9011066,14 Z M10.1181478,22.0095542 C10.3443875,20.9050179 9.61555635,19.8295103 8.49216327,19.6070682 L2.48436883,18.4216743 C1.36097575,18.2005112 0.265806068,18.9170528 0.0408672759,20.0215891 C-0.00673759412,20.2551393 -0.0128039046,20.4950357 0.0229377821,20.7306233 C0.150197596,21.5546044 0.787740987,22.249736 1.66690834,22.424075 L7.67470278,23.609469 C8.79934018,23.8306877 9.89320899,23.1153695 10.1181478,22.0095542 Z M8.74147939,8.32391503 L12.5680972,13.0290104 C13.283976,13.9086021 14.5899445,14.0514655 15.4858536,13.3475475 C16.3804618,12.6435738 16.5257077,11.3595268 15.8097723,10.4787117 L11.9819667,5.77478415 C11.2673322,4.89524808 9.96136369,4.75238464 9.0654546,5.45507924 C8.46388331,5.92776871 8.20167153,6.66077104 8.30964442,7.35834948 C8.36404266,7.71214698 8.51309346,8.04537491 8.74153595,8.32391503 L8.74147939,8.32391503 Z M25.2598033,10.1033962 C26.4063294,10.1299225 27.3562532,9.23765158 27.3831757,8.11164966 L27.3690357,2.08836241 C27.3960714,0.962304878 26.4885675,0.0271026691 25.3433423,0.000576448359 C24.1967596,-0.0259497723 23.2455915,0.866321111 23.2185559,1.99232303 L23.2326959,8.01549906 C23.2301507,8.13689684 23.2378428,8.25695996 23.2558854,8.37324157 C23.4049774,9.33363535 24.2379353,10.0805959 25.2598033,10.1033962 Z M34.8679193,13.7961576 C35.7279128,14.5405601 37.040216,14.4584789 37.7973271,13.6129209 L41.844981,9.0898388 C42.6020921,8.24305733 42.5184965,6.95400535 41.6586161,6.20960285 C40.7973782,5.46520036 39.4863194,5.54739271 38.7292083,6.39283953 L34.6803666,10.9160329 C34.2587124,11.3873877 34.0980257,11.9965454 34.1867682,12.5727816 C34.257355,13.0302894 34.4874407,13.4663316 34.8679193,13.7962132 L34.8679193,13.7961576 Z M49.9762045,21.1767865 C49.8039229,20.0620736 48.7448951,19.2962054 47.6123958,19.4667629 L41.5544893,20.3729364 C40.4207457,20.5422704 39.6418591,21.5823541 39.8140275,22.6970671 C39.986309,23.8116689 41.04545,24.577537 42.179137,24.408203 L48.2357992,23.5008616 C49.3694862,23.3315276 50.1483728,22.2913327 49.9761479,21.1767309 L49.9762045,21.1767865 Z M42.9999424,47 C42.9999424,48.1051846 41.6527382,49 39.9901868,49 L10.0097557,49 C8.34720424,49 7,48.1051846 7,47 C7,45.8948154 8.34720424,45 10.0097557,45 L39.9902443,45 C41.6527958,45 43,45.8948154 43,47 L42.9999424,47 Z" id="icon_alarm" fill="#F4523B" fill-rule="nonzero"></path>
    </g>
</svg>